<svg xmlns="http://www.w3.org/2000/svg" width="1425.333" height="576" version="1.0" viewBox="0 0 1069 432">
    <path d="M0 216v216h1069V0H0v216zm229.5-70.8c1.2 6.4.1 103.2-1.2 105.3-.6 1.1-9.6 10.4-20 20.7L189.5 290H80.8l.4-54.8.3-54.8 3-2.8c1.7-1.4 9.9-9.5 18.4-17.9 8.5-8.4 16.4-15.7 17.5-16.4 1.6-.9 15.4-1.2 55.3-1.3h53.2l.6 3.2zm108 16.7c5.3 2.4 10.3 7.6 11.5 12 .6 2.2 1 23 1 51.4v47.8l-11.2-.3-11.3-.3-.3-18.8-.2-18.8-9.3.3-9.2.3-.3 18.8-.2 18.8-11.3-.3-11.2-.3V224c0-26.7.3-49.7.8-51.3.4-1.5 2.5-4.5 4.7-6.7 5.3-5.3 7.1-5.7 28-5.8 12.1-.1 15.2.1 18.5 1.7zm426.8 2.1c8.1 6.1 8 5.4 8.5 48.6.6 46.8.4 49.5-4.6 55.1-5.6 6.2-6.9 6.6-24.3 7.1-19.8.5-25.9-.6-31-5.7-3.1-3-3.8-4.6-4.4-9.1-.3-3-.5-24.3-.3-47.4l.3-41.8 4.7-4.2c2.5-2.4 6.1-4.8 8-5.4 2-.6 10.2-1 20.9-.9l17.6.2 4.6 3.5zm-278.5 7.7.3 9.3h-12.9c-9.2 0-13.3.4-14 1.2-.6.9-.8 5.6-.4 13.3l.7 12 12.3.3 12.2.3v17.8l-12.2.3-12.3.3v27l13.3.3 13.2.3V273h-24.9c-13.8 0-25.2-.4-25.5-.8-.3-.5-.2-25.4.1-55.5l.6-54.6 2.6-.3c1.4-.2 12.5-.1 24.6.2l22 .5.3 9.2zm79.9-9.3c.4.3-1.4 7-4 14.9-2.5 7.8-5.3 16.4-6.1 19.2-.8 2.7-2.4 8.3-3.6 12.3-1.4 4.7-2 8.8-1.7 11.5.4 3.3 9.1 28 16.6 47 2.2 5.6 2.1 5.7-10.3 5.7h-11.4l-3-9.3c-1.7-5-3.6-11.5-4.3-14.2-1.8-7.3-4.9-15.5-5.9-15.5-.4 0-1.6 3-2.5 6.7-2 7.8-4.8 18.2-7.2 26.5l-1.7 5.8h-12.3c-6.8 0-12.3-.2-12.3-.5 0-.2 2-5.5 4.4-11.7 12.6-32.3 15.9-42.7 14.9-46.7-.3-1.4-3.2-10.5-6.5-20.1-4.8-13.9-9.7-29.9-9.8-31.8 0-.1 5-.1 11.1 0l11.1.3 3.5 11c1.9 6 4.2 13.8 5.1 17.3.9 3.5 2.1 6.4 2.7 6.3.5 0 2.9-6.4 5.2-14.3 2.3-7.9 4.9-16 5.8-18.2l1.6-3.9 10 .5c5.5.3 10.2.8 10.6 1.2zm74.9-.4h3.4l.2 23.2.3 23.3 9.8.3 9.7.3V162h23v111.1l-11.2-.3-11.3-.3-.5-21.5-.5-21.5-9-.5c-4.9-.3-9.4-.3-9.8.1-.5.4-.8 10.4-.7 22.3l.1 21.6h-11.4c-11 0-11.5-.1-12.1-2.3-.3-1.2-.6-26.1-.6-55.4v-53.2l2.8-.4c1.5-.3 5.4-.3 8.6-.1 3.2.2 7.4.4 9.2.4zm255.7 0h4.9l-.7 6.2c-.4 3.5-3.2 20.9-6.2 38.8s-5.7 34.1-6 36c-.8 6.8-4.5 28.5-5 29.2-.7 1.2-25.1 1-25.8-.3-1.3-2-8.1-42.7-10-60.1-.4-3.2-1-6-1.5-6.3-1.1-.7-2.8 8.2-10.4 54l-2.2 13h-25.9l-1.2-4c-.6-2.2-2.3-12.1-3.8-22s-3.8-24.5-5.2-32.5c-4.9-28.9-7.2-43.6-7.5-47.5l-.3-4 11-.3 11.1-.3 1.3 11.8c.7 6.5 1.9 17 2.7 23.3.9 6.3 1.9 16 2.5 21.5 1.7 19 3.3 25.5 5.5 23.2.4-.4 1.3-6.6 2-13.9 1.4-14.6 6.7-51.1 8.7-59.8l1.2-5.5 9.7-.3 9.6-.3 1.1 3.3c.5 1.8 1.3 5.5 1.6 8.3.4 2.7 2 12.9 3.5 22.5 1.6 9.6 3.6 23.3 4.5 30.3.9 7.1 1.9 13.5 2.2 14.3 1.2 3.3 2.8.3 3.5-6.7.5-4.1 1.5-13.5 2.4-20.9.9-7.4 2-17.6 2.5-22.5 1.2-12.9 2.7-23.7 3.4-26.2.8-2.5 3.4-3.3 8.5-2.7 1.9.2 5.7.4 8.3.4zm-502.1 45.7.3 45.8 13.3.3 13.2.3v7.8c0 4.4.3 8.6.6 9.5.6 1.4-2 1.6-24.5 1.6H372v-47.8c0-26.2-.2-51-.4-54.9-.2-4-.1-7.5.2-7.8.3-.3 5.4-.5 11.4-.5H394l.2 45.7zM965 164.2c9.6 4.2 11.3 9.3 10.8 32.9-.3 16.8-.4 17.6-3 21.9-2.3 3.9-3.4 4.8-8 6.2-2.9.9-7 2-9 2.3-4.9.9-6 2.5-5.6 7.6.3 3.8 0 4.3-2.2 5-1.4.4-5.5.7-9.2.8-8.5.1-8.8-.4-7.6-12.3 1.5-14.2 6.1-18.9 19.6-20.3l5.2-.6v-12.3c0-6.7-.3-12.9-.6-13.8-.5-1.3-2.3-1.6-9.4-1.6-9.9 0-10 .1-10 7.6v4.4h-5.4c-8.5 0-14.6-1.1-15.5-2.9-1.3-2.4 1.3-14.4 4.2-19.4 4-6.8 7-7.6 27.7-7.3 10.5.2 15.5.6 18 1.8zm-17.5 88.6c2.5 1.8 4.5 6.5 4.5 10.6 0 3.6-.6 5-3.1 7.5-2.6 2.6-3.8 3.1-7.9 3.1-4.2 0-5.3-.5-8.4-3.6-2-2-3.6-4.4-3.6-5.5 0-2.8 3.1-10.2 4.8-11.7 1.7-1.3 12-1.7 13.7-.4z"/>
    <path d="M125.8 148c-3.2.6-6.3 3.2-18.8 16-8.2 8.4-15 15.9-15 16.6 0 1.1 8.3 1.4 48.8 1.6l48.7.3v48.7c0 26.7.2 48.9.5 49.2.3.3 8.1-6.8 17.3-15.8l16.7-16.4-.2-50.3-.3-50.4-47-.1c-25.9-.1-48.7.1-50.7.6zM308.5 180.2c-.3 2.4-.5 11.7-.3 20.8l.3 16.5h18.9l-.3-19.5c-.2-11.5-.7-20-1.3-20.8-.7-.8-3.8-1.2-8.9-1.2h-7.8l-.6 4.2zM730.6 178.2c-1 3.5.1 78.9 1.2 80 .5.5 4.4.8 8.8.6l7.9-.3.5-32c.3-17.6.3-36.1 0-41l-.5-9-8.6-.3c-8.3-.3-8.7-.2-9.3 2z"/>
</svg>