<?xml version="1.0" standalone="no"?>
<!DOCTYPE svg PUBLIC "-//W3C//DTD SVG 20010904//EN"
        "http://www.w3.org/TR/2001/REC-SVG-20010904/DTD/svg10.dtd">
<svg version="1.0" xmlns="http://www.w3.org/2000/svg"
     width="1069.000000pt" height="432.000000pt" viewBox="0 0 1069.000000 432.000000"
     preserveAspectRatio="xMidYMid meet">

    <g transform="translate(0.000000,432.000000) scale(0.100000,-0.100000)"
       fill="#000000" stroke="none">
        <path d="M0 2160 l0 -2160 5345 0 5345 0 0 2160 0 2160 -5345 0 -5345 0 0
-2160z m2295 708 c12 -64 1 -1032 -12 -1053 -6 -11 -96 -104 -200 -207 l-188
-188 -543 0 -544 0 4 548 3 548 30 28 c17 14 99 95 184 179 85 84 164 157 175
164 16 9 154 12 553 13 l532 0 6 -32z m1080 -167 c53 -24 103 -76 115 -120 6
-22 10 -230 10 -514 l0 -478 -112 3 -113 3 -3 188 -2 188 -93 -3 -92 -3 -3
-188 -2 -188 -113 3 -112 3 0 485 c0 267 3 497 8 513 4 15 25 45 47 67 53 53
71 57 280 58 121 1 152 -1 185 -17z m4268 -21 c81 -61 80 -54 85 -486 6 -468
4 -495 -46 -551 -56 -62 -69 -66 -243 -71 -198 -5 -259 6 -310 57 -31 30 -38
46 -44 91 -3 30 -5 243 -3 474 l3 418 47 42 c25 24 61 48 80 54 20 6 102 10
209 9 l176 -2 46 -35z m-2785 -77 l3 -93 -129 0 c-92 0 -133 -4 -140 -12 -6
-9 -8 -56 -4 -133 l7 -120 123 -3 122 -3 0 -89 0 -89 -122 -3 -123 -3 0 -135
0 -135 133 -3 132 -3 0 -94 0 -95 -249 0 c-138 0 -252 4 -255 8 -3 5 -2 254 1
555 l6 546 26 3 c14 2 125 1 246 -2 l220 -5 3 -92z m799 93 c4 -3 -14 -70 -40
-149 -25 -78 -53 -164 -61 -192 -8 -27 -24 -83 -36 -123 -14 -47 -20 -88 -17
-115 4 -33 91 -280 166 -470 22 -56 21 -57 -103 -57 l-114 0 -30 93 c-17 50
-36 115 -43 142 -18 73 -49 155 -59 155 -4 0 -16 -30 -25 -67 -20 -78 -48
-182 -72 -265 l-17 -58 -123 0 c-68 0 -123 2 -123 5 0 2 20 55 44 117 126 323
159 427 149 467 -3 14 -32 105 -65 201 -48 139 -97 299 -98 318 0 1 50 1 111
0 l111 -3 35 -110 c19 -60 42 -138 51 -173 9 -35 21 -64 27 -63 5 0 29 64 52
143 23 79 49 160 58 182 l16 39 100 -5 c55 -3 102 -8 106 -12z m749 4 l34 0 2
-232 3 -233 98 -3 97 -3 0 236 0 235 115 0 115 0 0 -555 0 -556 -112 3 -113 3
-5 215 -5 215 -90 5 c-49 3 -94 3 -98 -1 -5 -4 -8 -104 -7 -223 l1 -216 -114
0 c-110 0 -115 1 -121 23 -3 12 -6 261 -6 554 l0 532 28 4 c15 3 54 3 86 1 32
-2 74 -4 92 -4z m2557 0 l49 0 -7 -62 c-4 -35 -32 -209 -62 -388 -30 -179 -57
-341 -60 -360 -8 -68 -45 -285 -50 -292 -7 -12 -251 -10 -258 3 -13 20 -81
427 -100 601 -4 32 -10 60 -15 63 -11 7 -28 -82 -104 -540 l-22 -130 -129 0
-130 0 -12 40 c-6 22 -23 121 -38 220 -15 99 -38 245 -52 325 -49 289 -72 436
-75 475 l-3 40 110 3 111 3 13 -118 c7 -65 19 -170 27 -233 9 -63 19 -160 25
-215 17 -190 33 -255 55 -232 4 4 13 66 20 139 14 146 67 511 87 598 l12 55
97 3 96 3 11 -33 c5 -18 13 -55 16 -83 4 -27 20 -129 35 -225 16 -96 36 -233
45 -303 9 -71 19 -135 22 -143 12 -33 28 -3 35 67 5 41 15 135 24 209 9 74 20
176 25 225 12 129 27 237 34 262 8 25 34 33 85 27 19 -2 57 -4 83 -4z m-5021
-457 l3 -458 133 -3 132 -3 0 -78 c0 -44 3 -86 6 -95 6 -14 -20 -16 -245 -16
l-251 0 0 478 c0 262 -2 510 -4 549 -2 40 -1 75 2 78 3 3 54 5 114 5 l108 0 2
-457z m5708 435 c96 -42 113 -93 108 -329 -3 -168 -4 -176 -30 -219 -23 -39
-34 -48 -80 -62 -29 -9 -70 -20 -90 -23 -49 -9 -60 -25 -56 -76 3 -38 0 -43
-22 -50 -14 -4 -55 -7 -92 -8 -85 -1 -88 4 -76 123 15 142 61 189 196 203 l52
6 0 123 c0 67 -3 129 -6 138 -5 13 -23 16 -94 16 -99 0 -100 -1 -100 -76 l0
-44 -54 0 c-85 0 -146 11 -155 29 -13 24 13 144 42 194 40 68 70 76 277 73
105 -2 155 -6 180 -18z m-175 -886 c25 -18 45 -65 45 -106 0 -36 -6 -50 -31
-75 -26 -26 -38 -31 -79 -31 -42 0 -53 5 -84 36 -20 20 -36 44 -36 55 0 28 31
102 48 117 17 13 120 17 137 4z"/>
        <path d="M1258 2840 c-32 -6 -63 -32 -188 -160 -82 -84 -150 -159 -150 -166 0
-11 83 -14 488 -16 l487 -3 0 -487 c0 -267 2 -489 5 -492 3 -3 81 68 173 158
l167 164 -2 503 -3 504 -470 1 c-259 1 -487 -1 -507 -6z"/>
        <path d="M3085 2518 c-3 -24 -5 -117 -3 -208 l3 -165 94 0 95 0 -3 195 c-2
115 -7 200 -13 208 -7 8 -38 12 -89 12 l-78 0 -6 -42z"/>
        <path d="M7306 2538 c-10 -35 1 -789 12 -800 5 -5 44 -8 88 -6 l79 3 5 320 c3
176 3 361 0 410 l-5 90 -86 3 c-83 3 -87 2 -93 -20z"/>
    </g>
</svg>
